<svg id="logo" xmlns="http://www.w3.org/2000/svg" width="100" height="28" viewBox="0 0 100 28">
  <path id="Path_15" data-name="Path 15" d="M94,6.865l6.577-17.838H96.1L92.659-.1H92.6L89.035-10.973h-4.6l5.511,14.89a2.64,2.64,0,0,1,.183.982,2.189,2.189,0,0,1-.411,1.289,1.676,1.676,0,0,1-1.264.675,8.9,8.9,0,0,1-1.279-.031C86.752,6.793,2.6,6.752,2.2,6.711V10.3c.447.041,84.619.077,85.055.107s.878.046,1.324.046a6.229,6.229,0,0,0,3.471-.829A5.367,5.367,0,0,0,94,6.865Z" transform="translate(-0.575 17.543)" fill="#0b968c"/>
  <path id="Path_16" data-name="Path 16" d="M5.2-2.376H.576a7.291,7.291,0,0,0,.731,3.5A6.885,6.885,0,0,0,3.362,3.549a8.736,8.736,0,0,0,2.984,1.4,13.627,13.627,0,0,0,3.486.445,13.282,13.282,0,0,0,3.913-.522,8.249,8.249,0,0,0,2.832-1.458A6.063,6.063,0,0,0,18.3,1.185a6.746,6.746,0,0,0,.579-2.794A5.409,5.409,0,0,0,18.1-4.633a6.514,6.514,0,0,0-1.842-1.888A8.068,8.068,0,0,0,14.11-7.55q-1.081-.322-1.69-.445-2.04-.522-3.3-.86A12.185,12.185,0,0,1,7.138-9.53a2.177,2.177,0,0,1-.959-.737,1.983,1.983,0,0,1-.244-1.044,2.074,2.074,0,0,1,.3-1.167,2.655,2.655,0,0,1,.776-.768,3.081,3.081,0,0,1,1.05-.43A5.558,5.558,0,0,1,9.223-13.8a8.088,8.088,0,0,1,1.629.154,3.907,3.907,0,0,1,1.324.522,2.7,2.7,0,0,1,.929,1.013,3.9,3.9,0,0,1,.411,1.627h4.628a6.779,6.779,0,0,0-.716-3.239,6.273,6.273,0,0,0-1.933-2.2,8.131,8.131,0,0,0-2.786-1.243,13.721,13.721,0,0,0-3.273-.384,11.052,11.052,0,0,0-2.923.4A8.13,8.13,0,0,0,3.9-15.916a6.518,6.518,0,0,0-1.873,2.072,5.778,5.778,0,0,0-.716,2.932A5.4,5.4,0,0,0,1.87-8.348,5.411,5.411,0,0,0,3.347-6.582a8.14,8.14,0,0,0,2.07,1.151,20.692,20.692,0,0,0,2.375.752q1.187.338,2.344.614a14.649,14.649,0,0,1,2.07.645,4.462,4.462,0,0,1,1.477.921,1.932,1.932,0,0,1,.563,1.443A2.13,2.13,0,0,1,13.821.31a2.993,2.993,0,0,1-1.066.844,4.738,4.738,0,0,1-1.37.414,9.446,9.446,0,0,1-1.37.107,7.21,7.21,0,0,1-1.827-.23A4.53,4.53,0,0,1,6.651.74,3.48,3.48,0,0,1,5.6-.5,4.049,4.049,0,0,1,5.2-2.376Zm21.526-8.6v-4.759H22.407v4.759H19.789v2.917h2.618V1.308a4.084,4.084,0,0,0,.4,1.934,2.834,2.834,0,0,0,1.081,1.136,4.463,4.463,0,0,0,1.583.537,12.519,12.519,0,0,0,1.9.138q.639,0,1.309-.031A10.205,10.205,0,0,0,29.9,4.9V1.523a6.01,6.01,0,0,1-.639.092q-.335.031-.7.031A2.1,2.1,0,0,1,27.1,1.277,2.147,2.147,0,0,1,26.731-.2v-7.86H29.9v-2.917ZM35.8-3.021a9.6,9.6,0,0,1,.183-1.873,4.8,4.8,0,0,1,.624-1.627,3.52,3.52,0,0,1,1.172-1.151,3.456,3.456,0,0,1,1.827-.445,3.538,3.538,0,0,1,1.842.445A3.475,3.475,0,0,1,42.64-6.521a4.8,4.8,0,0,1,.624,1.627,9.6,9.6,0,0,1,.183,1.873,9.371,9.371,0,0,1-.183,1.857A4.973,4.973,0,0,1,42.64.464a3.3,3.3,0,0,1-1.187,1.151,3.639,3.639,0,0,1-1.842.43,3.554,3.554,0,0,1-1.827-.43A3.337,3.337,0,0,1,36.611.464a4.973,4.973,0,0,1-.624-1.627A9.371,9.371,0,0,1,35.8-3.021Zm-4.324,0A9.69,9.69,0,0,0,32.059.418,7.468,7.468,0,0,0,33.7,3.043a7.187,7.187,0,0,0,2.558,1.673A9.133,9.133,0,0,0,39.61,5.3a9.255,9.255,0,0,0,3.364-.583,7.16,7.16,0,0,0,2.573-1.673A7.468,7.468,0,0,0,47.191.418a9.69,9.69,0,0,0,.579-3.439,9.817,9.817,0,0,0-.579-3.454,7.442,7.442,0,0,0-1.644-2.64A7.332,7.332,0,0,0,42.975-10.8a9.043,9.043,0,0,0-3.364-.6,8.925,8.925,0,0,0-3.349.6A7.363,7.363,0,0,0,33.7-9.115a7.442,7.442,0,0,0-1.644,2.64A9.817,9.817,0,0,0,31.481-3.021ZM61.289-5.385h4.232a6.01,6.01,0,0,0-.731-2.656,5.982,5.982,0,0,0-1.659-1.873,7.167,7.167,0,0,0-2.314-1.121,9.793,9.793,0,0,0-2.695-.368,8.524,8.524,0,0,0-3.41.645,7.178,7.178,0,0,0-2.527,1.8,7.717,7.717,0,0,0-1.568,2.732,10.655,10.655,0,0,0-.533,3.423,8.955,8.955,0,0,0,.579,3.27,7.628,7.628,0,0,0,1.614,2.564A7.186,7.186,0,0,0,54.788,4.7a8.552,8.552,0,0,0,3.243.6,7.818,7.818,0,0,0,5.146-1.658,7.212,7.212,0,0,0,2.436-4.82H61.441a4.154,4.154,0,0,1-1.05,2.349A3.153,3.153,0,0,1,58,2.045,3.035,3.035,0,0,1,56.3,1.584,3.428,3.428,0,0,1,55.184.4,5.442,5.442,0,0,1,54.59-1.21a8.692,8.692,0,0,1-.183-1.75,9.065,9.065,0,0,1,.183-1.8,5.331,5.331,0,0,1,.624-1.658,3.769,3.769,0,0,1,1.142-1.228,3.017,3.017,0,0,1,1.736-.476A2.906,2.906,0,0,1,61.289-5.385Zm7.155-11.636V4.9h4.324V-.565l1.675-1.627L78.766,4.9H84L77.4-5.139l5.937-5.833H78.218l-5.45,5.711V-17.021Z" transform="translate(-0.575 17.543)" fill="#1e1f26"/>
</svg>
